<?xml version="1.0" encoding="UTF-8" standalone="no"?>
<!DOCTYPE svg PUBLIC "-//W3C//DTD SVG 1.1//EN"
 "http://www.w3.org/Graphics/SVG/1.1/DTD/svg11.dtd">
<!-- Generated by graphviz version 7.0.4 (0)
 -->
<!-- Title: valves Pages: 1 -->
<svg width="1963pt" height="404pt"
 viewBox="0.00 0.00 1963.12 404.00" xmlns="http://www.w3.org/2000/svg" xmlns:xlink="http://www.w3.org/1999/xlink">
<g id="graph0" class="graph" transform="scale(1 1) rotate(0) translate(4 400)">
<title>valves</title>
<polygon fill="white" stroke="none" points="-4,4 -4,-400 1959.12,-400 1959.12,4 -4,4"/>
<!-- EG -->
<g id="node1" class="node">
<title>EG</title>
<ellipse fill="none" stroke="black" cx="638.88" cy="-306" rx="40.89" ry="18"/>
<text text-anchor="middle" x="638.88" y="-302.3" font-family="Times,serif" font-size="14.00">EG (21)</text>
</g>
<!-- WZ -->
<g id="node2" class="node">
<title>WZ</title>
<ellipse fill="none" stroke="black" cx="524.88" cy="-234" rx="38.99" ry="18"/>
<text text-anchor="middle" x="524.88" y="-230.3" font-family="Times,serif" font-size="14.00">WZ (0)</text>
</g>
<!-- EG&#45;&#45;WZ -->
<g id="edge1" class="edge">
<title>EG&#45;&#45;WZ</title>
<path fill="none" stroke="black" d="M615.81,-290.83C595.9,-278.61 567.31,-261.05 547.52,-248.91"/>
</g>
<!-- OF -->
<g id="node3" class="node">
<title>OF</title>
<ellipse fill="none" stroke="black" cx="617.88" cy="-234" rx="36.29" ry="18"/>
<text text-anchor="middle" x="617.88" y="-230.3" font-family="Times,serif" font-size="14.00">OF (0)</text>
</g>
<!-- EG&#45;&#45;OF -->
<g id="edge2" class="edge">
<title>EG&#45;&#45;OF</title>
<path fill="none" stroke="black" d="M633.68,-287.7C630.43,-276.85 626.25,-262.92 623.01,-252.1"/>
</g>
<!-- ZP -->
<g id="node4" class="node">
<title>ZP</title>
<ellipse fill="none" stroke="black" cx="706.88" cy="-234" rx="34.39" ry="18"/>
<text text-anchor="middle" x="706.88" y="-230.3" font-family="Times,serif" font-size="14.00">ZP (0)</text>
</g>
<!-- EG&#45;&#45;ZP -->
<g id="edge3" class="edge">
<title>EG&#45;&#45;ZP</title>
<path fill="none" stroke="black" d="M654.31,-289.12C665.59,-277.5 680.81,-261.83 691.97,-250.34"/>
</g>
<!-- QD -->
<g id="node5" class="node">
<title>QD</title>
<ellipse fill="none" stroke="black" cx="895.88" cy="-234" rx="37.89" ry="18"/>
<text text-anchor="middle" x="895.88" y="-230.3" font-family="Times,serif" font-size="14.00">QD (0)</text>
</g>
<!-- EG&#45;&#45;QD -->
<g id="edge4" class="edge">
<title>EG&#45;&#45;QD</title>
<path fill="none" stroke="black" d="M674.85,-297.07C716.91,-287.54 788.47,-270.5 848.88,-252 854.77,-250.2 861,-248.09 866.94,-245.98"/>
</g>
<!-- FH -->
<g id="node23" class="node">
<title>FH</title>
<ellipse fill="none" stroke="black" cx="535.88" cy="-162" rx="36.29" ry="18"/>
<text text-anchor="middle" x="535.88" y="-158.3" font-family="Times,serif" font-size="14.00">FH (0)</text>
</g>
<!-- WZ&#45;&#45;FH -->
<g id="edge21" class="edge">
<title>WZ&#45;&#45;FH</title>
<path fill="none" stroke="black" d="M527.59,-215.7C529.3,-204.85 531.49,-190.92 533.19,-180.1"/>
</g>
<!-- EJ -->
<g id="node14" class="node">
<title>EJ</title>
<ellipse fill="none" stroke="black" cx="623.88" cy="-162" rx="33.29" ry="18"/>
<text text-anchor="middle" x="623.88" y="-158.3" font-family="Times,serif" font-size="14.00">EJ (0)</text>
</g>
<!-- OF&#45;&#45;EJ -->
<g id="edge11" class="edge">
<title>OF&#45;&#45;EJ</title>
<path fill="none" stroke="black" d="M619.36,-215.7C620.29,-204.85 621.48,-190.92 622.41,-180.1"/>
</g>
<!-- OR -->
<g id="node6" class="node">
<title>OR</title>
<ellipse fill="none" stroke="black" cx="928.88" cy="-306" rx="36.29" ry="18"/>
<text text-anchor="middle" x="928.88" y="-302.3" font-family="Times,serif" font-size="14.00">OR (0)</text>
</g>
<!-- OR&#45;&#45;QD -->
<g id="edge5" class="edge">
<title>OR&#45;&#45;QD</title>
<path fill="none" stroke="black" d="M920.89,-288.05C915.7,-277.05 908.96,-262.76 903.79,-251.79"/>
</g>
<!-- CR -->
<g id="node7" class="node">
<title>CR</title>
<ellipse fill="none" stroke="black" cx="1022.88" cy="-162" rx="35.19" ry="18"/>
<text text-anchor="middle" x="1022.88" y="-158.3" font-family="Times,serif" font-size="14.00">CR (8)</text>
</g>
<!-- OR&#45;&#45;CR -->
<g id="edge6" class="edge">
<title>OR&#45;&#45;CR</title>
<path fill="none" stroke="black" d="M937.78,-288.17C947.63,-269.94 964.32,-240.23 980.88,-216 989.75,-203.01 1000.84,-189.1 1009.4,-178.79"/>
</g>
<!-- ZE -->
<g id="node35" class="node">
<title>ZE</title>
<ellipse fill="none" stroke="black" cx="1141.88" cy="-90" rx="35.19" ry="18"/>
<text text-anchor="middle" x="1141.88" y="-86.3" font-family="Times,serif" font-size="14.00">ZE (0)</text>
</g>
<!-- CR&#45;&#45;ZE -->
<g id="edge65" class="edge">
<title>CR&#45;&#45;ZE</title>
<path fill="none" stroke="black" d="M1045.26,-147.83C1066.53,-135.32 1098.35,-116.6 1119.59,-104.11"/>
</g>
<!-- LS -->
<g id="node57" class="node">
<title>LS</title>
<ellipse fill="none" stroke="black" cx="944.88" cy="-90" rx="34.39" ry="18"/>
<text text-anchor="middle" x="944.88" y="-86.3" font-family="Times,serif" font-size="14.00">LS (0)</text>
</g>
<!-- CR&#45;&#45;LS -->
<g id="edge66" class="edge">
<title>CR&#45;&#45;LS</title>
<path fill="none" stroke="black" d="M1005.95,-145.81C992.87,-134.07 974.84,-117.89 961.77,-106.16"/>
</g>
<!-- VO -->
<g id="node8" class="node">
<title>VO</title>
<ellipse fill="none" stroke="black" cx="399.88" cy="-306" rx="36.29" ry="18"/>
<text text-anchor="middle" x="399.88" y="-302.3" font-family="Times,serif" font-size="14.00">VO (0)</text>
</g>
<!-- FL -->
<g id="node9" class="node">
<title>FL</title>
<ellipse fill="none" stroke="black" cx="422.88" cy="-234" rx="40.09" ry="18"/>
<text text-anchor="middle" x="422.88" y="-230.3" font-family="Times,serif" font-size="14.00">FL (22)</text>
</g>
<!-- VO&#45;&#45;FL -->
<g id="edge7" class="edge">
<title>VO&#45;&#45;FL</title>
<path fill="none" stroke="black" d="M405.44,-288.05C409.01,-277.21 413.61,-263.18 417.2,-252.28"/>
</g>
<!-- OY -->
<g id="node10" class="node">
<title>OY</title>
<ellipse fill="none" stroke="black" cx="284.88" cy="-90" rx="40.89" ry="18"/>
<text text-anchor="middle" x="284.88" y="-86.3" font-family="Times,serif" font-size="14.00">OY (13)</text>
</g>
<!-- VO&#45;&#45;OY -->
<g id="edge8" class="edge">
<title>VO&#45;&#45;OY</title>
<path fill="none" stroke="black" d="M391.55,-288.35C386.38,-277.94 379.65,-264.23 373.88,-252 351.38,-204.33 351.8,-189.31 324.88,-144 317.1,-130.92 306.71,-117.24 298.47,-107.05"/>
</g>
<!-- FL&#45;&#45;FH -->
<g id="edge18" class="edge">
<title>FL&#45;&#45;FH</title>
<path fill="none" stroke="black" d="M445.74,-218.83C465.61,-206.53 494.19,-188.82 513.81,-176.67"/>
</g>
<!-- GV -->
<g id="node26" class="node">
<title>GV</title>
<ellipse fill="none" stroke="black" cx="275.88" cy="-18" rx="36.29" ry="18"/>
<text text-anchor="middle" x="275.88" y="-14.3" font-family="Times,serif" font-size="14.00">GV (0)</text>
</g>
<!-- OY&#45;&#45;GV -->
<g id="edge56" class="edge">
<title>OY&#45;&#45;GV</title>
<path fill="none" stroke="black" d="M282.65,-71.7C281.26,-60.85 279.46,-46.92 278.07,-36.1"/>
</g>
<!-- AR -->
<g id="node53" class="node">
<title>AR</title>
<ellipse fill="none" stroke="black" cx="176.88" cy="-18" rx="36.29" ry="18"/>
<text text-anchor="middle" x="176.88" y="-14.3" font-family="Times,serif" font-size="14.00">AR (0)</text>
</g>
<!-- OY&#45;&#45;AR -->
<g id="edge55" class="edge">
<title>OY&#45;&#45;AR</title>
<path fill="none" stroke="black" d="M262.5,-74.5C243.59,-62.24 216.7,-44.81 198.12,-32.77"/>
</g>
<!-- BV -->
<g id="node11" class="node">
<title>BV</title>
<ellipse fill="none" stroke="black" cx="1545.88" cy="-306" rx="36" ry="18"/>
<text text-anchor="middle" x="1545.88" y="-302.3" font-family="Times,serif" font-size="14.00">BV (0)</text>
</g>
<!-- AA -->
<g id="node12" class="node">
<title>AA</title>
<ellipse fill="none" stroke="black" cx="1308.88" cy="-234" rx="36.29" ry="18"/>
<text text-anchor="middle" x="1308.88" y="-230.3" font-family="Times,serif" font-size="14.00">AA (0)</text>
</g>
<!-- BV&#45;&#45;AA -->
<g id="edge9" class="edge">
<title>BV&#45;&#45;AA</title>
<path fill="none" stroke="black" d="M1516.24,-295.39C1508.35,-292.91 1499.81,-290.29 1491.88,-288 1431.39,-270.54 1414.92,-270.93 1354.88,-252 1349.03,-250.16 1342.83,-248.01 1336.95,-245.86"/>
</g>
<!-- KK -->
<g id="node13" class="node">
<title>KK</title>
<ellipse fill="none" stroke="black" cx="1593.88" cy="-234" rx="36.29" ry="18"/>
<text text-anchor="middle" x="1593.88" y="-230.3" font-family="Times,serif" font-size="14.00">KK (0)</text>
</g>
<!-- BV&#45;&#45;KK -->
<g id="edge10" class="edge">
<title>BV&#45;&#45;KK</title>
<path fill="none" stroke="black" d="M1557.01,-288.76C1564.76,-277.46 1575.06,-262.44 1582.8,-251.15"/>
</g>
<!-- AA&#45;&#45;ZE -->
<g id="edge32" class="edge">
<title>AA&#45;&#45;ZE</title>
<path fill="none" stroke="black" d="M1291.32,-218.07C1259.25,-190.8 1191.53,-133.22 1159.45,-105.94"/>
</g>
<!-- PE -->
<g id="node36" class="node">
<title>PE</title>
<ellipse fill="none" stroke="black" cx="1133.88" cy="-162" rx="35.19" ry="18"/>
<text text-anchor="middle" x="1133.88" y="-158.3" font-family="Times,serif" font-size="14.00">PE (0)</text>
</g>
<!-- AA&#45;&#45;PE -->
<g id="edge33" class="edge">
<title>AA&#45;&#45;PE</title>
<path fill="none" stroke="black" d="M1281.15,-221.91C1248.18,-208.72 1193.55,-186.87 1160.9,-173.81"/>
</g>
<!-- XL -->
<g id="node37" class="node">
<title>XL</title>
<ellipse fill="none" stroke="black" cx="1356.88" cy="-162" rx="36" ry="18"/>
<text text-anchor="middle" x="1356.88" y="-158.3" font-family="Times,serif" font-size="14.00">XL (0)</text>
</g>
<!-- AA&#45;&#45;XL -->
<g id="edge34" class="edge">
<title>AA&#45;&#45;XL</title>
<path fill="none" stroke="black" d="M1320.25,-216.41C1327.9,-205.25 1337.95,-190.6 1345.58,-179.47"/>
</g>
<!-- TU -->
<g id="node40" class="node">
<title>TU</title>
<ellipse fill="none" stroke="black" cx="1592.88" cy="-162" rx="36" ry="18"/>
<text text-anchor="middle" x="1592.88" y="-158.3" font-family="Times,serif" font-size="14.00">TU (7)</text>
</g>
<!-- KK&#45;&#45;TU -->
<g id="edge60" class="edge">
<title>KK&#45;&#45;TU</title>
<path fill="none" stroke="black" d="M1593.63,-215.7C1593.47,-204.85 1593.27,-190.92 1593.12,-180.1"/>
</g>
<!-- YI -->
<g id="node19" class="node">
<title>YI</title>
<ellipse fill="none" stroke="black" cx="623.88" cy="-90" rx="38.19" ry="18"/>
<text text-anchor="middle" x="623.88" y="-86.3" font-family="Times,serif" font-size="14.00">YI (15)</text>
</g>
<!-- EJ&#45;&#45;YI -->
<g id="edge15" class="edge">
<title>EJ&#45;&#45;YI</title>
<path fill="none" stroke="black" d="M623.88,-143.7C623.88,-132.85 623.88,-118.92 623.88,-108.1"/>
</g>
<!-- YZ -->
<g id="node15" class="node">
<title>YZ</title>
<ellipse fill="none" stroke="black" cx="136.88" cy="-306" rx="35.19" ry="18"/>
<text text-anchor="middle" x="136.88" y="-302.3" font-family="Times,serif" font-size="14.00">YZ (0)</text>
</g>
<!-- EL -->
<g id="node16" class="node">
<title>EL</title>
<ellipse fill="none" stroke="black" cx="275.88" cy="-234" rx="40.09" ry="18"/>
<text text-anchor="middle" x="275.88" y="-230.3" font-family="Times,serif" font-size="14.00">EL (16)</text>
</g>
<!-- YZ&#45;&#45;EL -->
<g id="edge12" class="edge">
<title>YZ&#45;&#45;EL</title>
<path fill="none" stroke="black" d="M161.41,-292.65C186.35,-280.09 224.83,-260.71 250.18,-247.94"/>
</g>
<!-- AW -->
<g id="node17" class="node">
<title>AW</title>
<ellipse fill="none" stroke="black" cx="60.88" cy="-18" rx="44.39" ry="18"/>
<text text-anchor="middle" x="60.88" y="-14.3" font-family="Times,serif" font-size="14.00">AW (25)</text>
</g>
<!-- YZ&#45;&#45;AW -->
<g id="edge13" class="edge">
<title>YZ&#45;&#45;AW</title>
<path fill="none" stroke="black" d="M107.57,-295.76C86.57,-287.6 59.37,-273.59 43.88,-252 -3.33,-186.22 -12.04,-148 15.88,-72 21.2,-57.5 32.45,-44.25 42.37,-34.62"/>
</g>
<!-- RD -->
<g id="node18" class="node">
<title>RD</title>
<ellipse fill="none" stroke="black" cx="279.88" cy="-162" rx="36.29" ry="18"/>
<text text-anchor="middle" x="279.88" y="-158.3" font-family="Times,serif" font-size="14.00">RD (0)</text>
</g>
<!-- EL&#45;&#45;RD -->
<g id="edge14" class="edge">
<title>EL&#45;&#45;RD</title>
<path fill="none" stroke="black" d="M276.86,-215.7C277.48,-204.85 278.28,-190.92 278.9,-180.1"/>
</g>
<!-- RD&#45;&#45;OY -->
<g id="edge38" class="edge">
<title>RD&#45;&#45;OY</title>
<path fill="none" stroke="black" d="M281.11,-143.7C281.89,-132.85 282.88,-118.92 283.65,-108.1"/>
</g>
<!-- FM -->
<g id="node20" class="node">
<title>FM</title>
<ellipse fill="none" stroke="black" cx="1911.88" cy="-306" rx="38.19" ry="18"/>
<text text-anchor="middle" x="1911.88" y="-302.3" font-family="Times,serif" font-size="14.00">FM (0)</text>
</g>
<!-- VX -->
<g id="node21" class="node">
<title>VX</title>
<ellipse fill="none" stroke="black" cx="1912.88" cy="-234" rx="36.29" ry="18"/>
<text text-anchor="middle" x="1912.88" y="-230.3" font-family="Times,serif" font-size="14.00">VX (0)</text>
</g>
<!-- FM&#45;&#45;VX -->
<g id="edge16" class="edge">
<title>FM&#45;&#45;VX</title>
<path fill="none" stroke="black" d="M1912.12,-287.7C1912.28,-276.85 1912.48,-262.92 1912.63,-252.1"/>
</g>
<!-- FX -->
<g id="node22" class="node">
<title>FX</title>
<ellipse fill="none" stroke="black" cx="1817.88" cy="-234" rx="40.09" ry="18"/>
<text text-anchor="middle" x="1817.88" y="-230.3" font-family="Times,serif" font-size="14.00">FX (14)</text>
</g>
<!-- FM&#45;&#45;FX -->
<g id="edge17" class="edge">
<title>FM&#45;&#45;FX</title>
<path fill="none" stroke="black" d="M1891.94,-290.15C1875.99,-278.28 1853.73,-261.7 1837.78,-249.82"/>
</g>
<!-- GQ -->
<g id="node38" class="node">
<title>GQ</title>
<ellipse fill="none" stroke="black" cx="1912.88" cy="-162" rx="42.49" ry="18"/>
<text text-anchor="middle" x="1912.88" y="-158.3" font-family="Times,serif" font-size="14.00">GQ (18)</text>
</g>
<!-- VX&#45;&#45;GQ -->
<g id="edge35" class="edge">
<title>VX&#45;&#45;GQ</title>
<path fill="none" stroke="black" d="M1912.88,-215.7C1912.88,-204.85 1912.88,-190.92 1912.88,-180.1"/>
</g>
<!-- OQ -->
<g id="node41" class="node">
<title>OQ</title>
<ellipse fill="none" stroke="black" cx="1683.88" cy="-162" rx="37.89" ry="18"/>
<text text-anchor="middle" x="1683.88" y="-158.3" font-family="Times,serif" font-size="14.00">OQ (0)</text>
</g>
<!-- FX&#45;&#45;OQ -->
<g id="edge52" class="edge">
<title>FX&#45;&#45;OQ</title>
<path fill="none" stroke="black" d="M1792.36,-219.67C1768.36,-207.13 1732.66,-188.49 1708.85,-176.04"/>
</g>
<!-- XC -->
<g id="node24" class="node">
<title>XC</title>
<ellipse fill="none" stroke="black" cx="87.88" cy="-234" rx="35.19" ry="18"/>
<text text-anchor="middle" x="87.88" y="-230.3" font-family="Times,serif" font-size="14.00">XC (0)</text>
</g>
<!-- UA -->
<g id="node25" class="node">
<title>UA</title>
<ellipse fill="none" stroke="black" cx="87.88" cy="-162" rx="41.69" ry="18"/>
<text text-anchor="middle" x="87.88" y="-158.3" font-family="Times,serif" font-size="14.00">UA (19)</text>
</g>
<!-- XC&#45;&#45;UA -->
<g id="edge19" class="edge">
<title>XC&#45;&#45;UA</title>
<path fill="none" stroke="black" d="M87.88,-215.7C87.88,-204.85 87.88,-190.92 87.88,-180.1"/>
</g>
<!-- XC&#45;&#45;GV -->
<g id="edge20" class="edge">
<title>XC&#45;&#45;GV</title>
<path fill="none" stroke="black" d="M103.31,-217.47C113.56,-207.03 127.22,-192.88 138.88,-180 185.91,-128.03 239.02,-63.99 262.96,-34.82"/>
</g>
<!-- KY -->
<g id="node48" class="node">
<title>KY</title>
<ellipse fill="none" stroke="black" cx="60.88" cy="-90" rx="36.29" ry="18"/>
<text text-anchor="middle" x="60.88" y="-86.3" font-family="Times,serif" font-size="14.00">KY (0)</text>
</g>
<!-- UA&#45;&#45;KY -->
<g id="edge45" class="edge">
<title>UA&#45;&#45;KY</title>
<path fill="none" stroke="black" d="M81.34,-144.05C77.09,-133.05 71.58,-118.76 67.35,-107.79"/>
</g>
<!-- AT -->
<g id="node27" class="node">
<title>AT</title>
<ellipse fill="none" stroke="black" cx="1727.88" cy="-306" rx="35.19" ry="18"/>
<text text-anchor="middle" x="1727.88" y="-302.3" font-family="Times,serif" font-size="14.00">AT (0)</text>
</g>
<!-- AT&#45;&#45;FX -->
<g id="edge22" class="edge">
<title>AT&#45;&#45;FX</title>
<path fill="none" stroke="black" d="M1746.52,-290.5C1761.76,-278.64 1783.23,-261.95 1798.63,-249.97"/>
</g>
<!-- OZ -->
<g id="node28" class="node">
<title>OZ</title>
<ellipse fill="none" stroke="black" cx="1498.88" cy="-234" rx="40.89" ry="18"/>
<text text-anchor="middle" x="1498.88" y="-230.3" font-family="Times,serif" font-size="14.00">OZ (10)</text>
</g>
<!-- AT&#45;&#45;OZ -->
<g id="edge23" class="edge">
<title>AT&#45;&#45;OZ</title>
<path fill="none" stroke="black" d="M1700.17,-294.56C1693.86,-292.3 1687.16,-289.99 1680.88,-288 1622.9,-269.64 1607.02,-269.8 1548.88,-252 1542.83,-250.15 1536.41,-248.06 1530.25,-246"/>
</g>
<!-- OZ&#45;&#45;XL -->
<g id="edge68" class="edge">
<title>OZ&#45;&#45;XL</title>
<path fill="none" stroke="black" d="M1472.5,-220C1446.51,-207.19 1407.11,-187.77 1381.68,-175.23"/>
</g>
<!-- MZ -->
<g id="node29" class="node">
<title>MZ</title>
<ellipse fill="none" stroke="black" cx="178.88" cy="-234" rx="38.19" ry="18"/>
<text text-anchor="middle" x="178.88" y="-230.3" font-family="Times,serif" font-size="14.00">MZ (0)</text>
</g>
<!-- MZ&#45;&#45;YI -->
<g id="edge25" class="edge">
<title>MZ&#45;&#45;YI</title>
<path fill="none" stroke="black" d="M207.8,-221.8C214.03,-219.66 220.62,-217.59 226.88,-216 325.44,-190.92 361.65,-224.99 452.88,-180 473.74,-169.71 471.27,-156.53 490.88,-144 522.71,-123.65 563.63,-108.78 591.62,-100.06"/>
</g>
<!-- MZ&#45;&#45;UA -->
<g id="edge24" class="edge">
<title>MZ&#45;&#45;UA</title>
<path fill="none" stroke="black" d="M159.58,-218.15C144.34,-206.44 123.16,-190.14 107.78,-178.31"/>
</g>
<!-- WI -->
<g id="node30" class="node">
<title>WI</title>
<ellipse fill="none" stroke="black" cx="1210.88" cy="-306" rx="37.09" ry="18"/>
<text text-anchor="middle" x="1210.88" y="-302.3" font-family="Times,serif" font-size="14.00">WI (0)</text>
</g>
<!-- OH -->
<g id="node31" class="node">
<title>OH</title>
<ellipse fill="none" stroke="black" cx="1401.88" cy="-234" rx="38.19" ry="18"/>
<text text-anchor="middle" x="1401.88" y="-230.3" font-family="Times,serif" font-size="14.00">OH (0)</text>
</g>
<!-- WI&#45;&#45;OH -->
<g id="edge26" class="edge">
<title>WI&#45;&#45;OH</title>
<path fill="none" stroke="black" d="M1239.88,-294.37C1275.68,-281.25 1336.22,-259.06 1372.28,-245.85"/>
</g>
<!-- WW -->
<g id="node32" class="node">
<title>WW</title>
<ellipse fill="none" stroke="black" cx="1117.88" cy="-234" rx="43.59" ry="18"/>
<text text-anchor="middle" x="1117.88" y="-230.3" font-family="Times,serif" font-size="14.00">WW (4)</text>
</g>
<!-- WI&#45;&#45;WW -->
<g id="edge27" class="edge">
<title>WI&#45;&#45;WW</title>
<path fill="none" stroke="black" d="M1191.61,-290.5C1175.96,-278.72 1153.97,-262.17 1138.09,-250.21"/>
</g>
<!-- OH&#45;&#45;TU -->
<g id="edge64" class="edge">
<title>OH&#45;&#45;TU</title>
<path fill="none" stroke="black" d="M1431.3,-222.22C1467.51,-208.95 1528.57,-186.57 1564.35,-173.45"/>
</g>
<!-- WW&#45;&#45;PE -->
<g id="edge46" class="edge">
<title>WW&#45;&#45;PE</title>
<path fill="none" stroke="black" d="M1121.83,-215.7C1124.31,-204.85 1127.49,-190.92 1129.97,-180.1"/>
</g>
<!-- DY -->
<g id="node49" class="node">
<title>DY</title>
<ellipse fill="none" stroke="black" cx="744.88" cy="-162" rx="36.29" ry="18"/>
<text text-anchor="middle" x="744.88" y="-158.3" font-family="Times,serif" font-size="14.00">DY (0)</text>
</g>
<!-- WW&#45;&#45;DY -->
<g id="edge47" class="edge">
<title>WW&#45;&#45;DY</title>
<path fill="none" stroke="black" d="M1085.31,-221.64C1078.61,-219.56 1071.56,-217.56 1064.88,-216 958.98,-191.31 929.84,-199.59 822.88,-180 807.88,-177.25 791.37,-173.73 777.41,-170.6"/>
</g>
<!-- YD -->
<g id="node33" class="node">
<title>YD</title>
<ellipse fill="none" stroke="black" cx="1337.88" cy="-306" rx="36.29" ry="18"/>
<text text-anchor="middle" x="1337.88" y="-302.3" font-family="Times,serif" font-size="14.00">YD (0)</text>
</g>
<!-- YD&#45;&#45;OZ -->
<g id="edge28" class="edge">
<title>YD&#45;&#45;OZ</title>
<path fill="none" stroke="black" d="M1364.46,-293.44C1393.67,-280.74 1440.39,-260.43 1470.35,-247.4"/>
</g>
<!-- YD&#45;&#45;WW -->
<g id="edge29" class="edge">
<title>YD&#45;&#45;WW</title>
<path fill="none" stroke="black" d="M1307.8,-295.62C1274.16,-285.09 1218.07,-267.48 1169.88,-252 1163.82,-250.05 1157.37,-247.96 1151.15,-245.93"/>
</g>
<!-- QX -->
<g id="node34" class="node">
<title>QX</title>
<ellipse fill="none" stroke="black" cx="407.88" cy="-162" rx="36.29" ry="18"/>
<text text-anchor="middle" x="407.88" y="-158.3" font-family="Times,serif" font-size="14.00">QX (0)</text>
</g>
<!-- QX&#45;&#45;OY -->
<g id="edge30" class="edge">
<title>QX&#45;&#45;OY</title>
<path fill="none" stroke="black" d="M384.74,-147.83C363.17,-135.56 331.11,-117.31 309.17,-104.83"/>
</g>
<!-- QX&#45;&#45;YI -->
<g id="edge31" class="edge">
<title>QX&#45;&#45;YI</title>
<path fill="none" stroke="black" d="M437.19,-150.93C443.98,-148.63 451.17,-146.21 457.88,-144 504.71,-128.56 559.2,-111.3 592.61,-100.79"/>
</g>
<!-- VN -->
<g id="node39" class="node">
<title>VN</title>
<ellipse fill="none" stroke="black" cx="1684.88" cy="-234" rx="37.09" ry="18"/>
<text text-anchor="middle" x="1684.88" y="-230.3" font-family="Times,serif" font-size="14.00">VN (0)</text>
</g>
<!-- VN&#45;&#45;TU -->
<g id="edge36" class="edge">
<title>VN&#45;&#45;TU</title>
<path fill="none" stroke="black" d="M1665.81,-218.5C1650.02,-206.48 1627.7,-189.49 1611.91,-177.49"/>
</g>
<!-- VN&#45;&#45;OQ -->
<g id="edge37" class="edge">
<title>VN&#45;&#45;OQ</title>
<path fill="none" stroke="black" d="M1684.63,-215.7C1684.47,-204.85 1684.27,-190.92 1684.12,-180.1"/>
</g>
<!-- MG -->
<g id="node55" class="node">
<title>MG</title>
<ellipse fill="none" stroke="black" cx="1670.88" cy="-90" rx="38.99" ry="18"/>
<text text-anchor="middle" x="1670.88" y="-86.3" font-family="Times,serif" font-size="14.00">MG (0)</text>
</g>
<!-- TU&#45;&#45;MG -->
<g id="edge67" class="edge">
<title>TU&#45;&#45;MG</title>
<path fill="none" stroke="black" d="M1609.8,-145.81C1622.79,-134.15 1640.66,-118.11 1653.71,-106.4"/>
</g>
<!-- QR -->
<g id="node42" class="node">
<title>QR</title>
<ellipse fill="none" stroke="black" cx="1446.88" cy="-306" rx="36.29" ry="18"/>
<text text-anchor="middle" x="1446.88" y="-302.3" font-family="Times,serif" font-size="14.00">QR (0)</text>
</g>
<!-- QR&#45;&#45;OZ -->
<g id="edge40" class="edge">
<title>QR&#45;&#45;OZ</title>
<path fill="none" stroke="black" d="M1458.94,-288.76C1467.22,-277.62 1478.18,-262.87 1486.52,-251.63"/>
</g>
<!-- QQ -->
<g id="node43" class="node">
<title>QQ</title>
<ellipse fill="none" stroke="black" cx="1216.88" cy="-234" rx="37.89" ry="18"/>
<text text-anchor="middle" x="1216.88" y="-230.3" font-family="Times,serif" font-size="14.00">QQ (0)</text>
</g>
<!-- QR&#45;&#45;QQ -->
<g id="edge39" class="edge">
<title>QR&#45;&#45;QQ</title>
<path fill="none" stroke="black" d="M1415.6,-296.61C1379.02,-286.64 1316.72,-269.19 1263.88,-252 1258.1,-250.12 1251.97,-248 1246.11,-245.91"/>
</g>
<!-- QQ&#45;&#45;CR -->
<g id="edge63" class="edge">
<title>QQ&#45;&#45;CR</title>
<path fill="none" stroke="black" d="M1187.69,-222.16C1182.11,-220.11 1176.32,-217.98 1170.88,-216 1129.33,-200.88 1081.1,-183.67 1051.28,-173.08"/>
</g>
<!-- CD -->
<g id="node44" class="node">
<title>CD</title>
<ellipse fill="none" stroke="black" cx="1070.88" cy="-306" rx="36.29" ry="18"/>
<text text-anchor="middle" x="1070.88" y="-302.3" font-family="Times,serif" font-size="14.00">CD (0)</text>
</g>
<!-- CD&#45;&#45;WW -->
<g id="edge41" class="edge">
<title>CD&#45;&#45;WW</title>
<path fill="none" stroke="black" d="M1082.01,-288.41C1089.51,-277.25 1099.34,-262.6 1106.82,-251.47"/>
</g>
<!-- RJ -->
<g id="node45" class="node">
<title>RJ</title>
<ellipse fill="none" stroke="black" cx="1022.88" cy="-234" rx="33.29" ry="18"/>
<text text-anchor="middle" x="1022.88" y="-230.3" font-family="Times,serif" font-size="14.00">RJ (0)</text>
</g>
<!-- CD&#45;&#45;RJ -->
<g id="edge42" class="edge">
<title>CD&#45;&#45;RJ</title>
<path fill="none" stroke="black" d="M1059.5,-288.41C1051.74,-277.09 1041.51,-262.18 1033.84,-250.99"/>
</g>
<!-- RJ&#45;&#45;CR -->
<g id="edge44" class="edge">
<title>RJ&#45;&#45;CR</title>
<path fill="none" stroke="black" d="M1022.88,-215.7C1022.88,-204.85 1022.88,-190.92 1022.88,-180.1"/>
</g>
<!-- VA -->
<g id="node46" class="node">
<title>VA</title>
<ellipse fill="none" stroke="black" cx="1817.88" cy="-378" rx="40.09" ry="18"/>
<text text-anchor="middle" x="1817.88" y="-374.3" font-family="Times,serif" font-size="14.00">VA (20)</text>
</g>
<!-- DE -->
<g id="node47" class="node">
<title>DE</title>
<ellipse fill="none" stroke="black" cx="1817.88" cy="-306" rx="36.29" ry="18"/>
<text text-anchor="middle" x="1817.88" y="-302.3" font-family="Times,serif" font-size="14.00">DE (0)</text>
</g>
<!-- VA&#45;&#45;DE -->
<g id="edge43" class="edge">
<title>VA&#45;&#45;DE</title>
<path fill="none" stroke="black" d="M1817.88,-359.7C1817.88,-348.85 1817.88,-334.92 1817.88,-324.1"/>
</g>
<!-- DE&#45;&#45;FX -->
<g id="edge50" class="edge">
<title>DE&#45;&#45;FX</title>
<path fill="none" stroke="black" d="M1817.88,-287.7C1817.88,-276.85 1817.88,-262.92 1817.88,-252.1"/>
</g>
<!-- KY&#45;&#45;AW -->
<g id="edge59" class="edge">
<title>KY&#45;&#45;AW</title>
<path fill="none" stroke="black" d="M60.88,-71.7C60.88,-60.85 60.88,-46.92 60.88,-36.1"/>
</g>
<!-- DY&#45;&#45;YI -->
<g id="edge51" class="edge">
<title>DY&#45;&#45;YI</title>
<path fill="none" stroke="black" d="M721.83,-147.67C700.44,-135.29 668.74,-116.96 647.25,-104.52"/>
</g>
<!-- MC -->
<g id="node50" class="node">
<title>MC</title>
<ellipse fill="none" stroke="black" cx="777.88" cy="-306" rx="38.19" ry="18"/>
<text text-anchor="middle" x="777.88" y="-302.3" font-family="Times,serif" font-size="14.00">MC (0)</text>
</g>
<!-- MC&#45;&#45;ZP -->
<g id="edge48" class="edge">
<title>MC&#45;&#45;ZP</title>
<path fill="none" stroke="black" d="M762.12,-289.46C750.35,-277.86 734.34,-262.08 722.59,-250.49"/>
</g>
<!-- XY -->
<g id="node51" class="node">
<title>XY</title>
<ellipse fill="none" stroke="black" cx="799.88" cy="-234" rx="40.09" ry="18"/>
<text text-anchor="middle" x="799.88" y="-230.3" font-family="Times,serif" font-size="14.00">XY (24)</text>
</g>
<!-- MC&#45;&#45;XY -->
<g id="edge49" class="edge">
<title>MC&#45;&#45;XY</title>
<path fill="none" stroke="black" d="M783.31,-287.7C786.72,-276.85 791.1,-262.92 794.5,-252.1"/>
</g>
<!-- UU -->
<g id="node52" class="node">
<title>UU</title>
<ellipse fill="none" stroke="black" cx="151.88" cy="-90" rx="36.29" ry="18"/>
<text text-anchor="middle" x="151.88" y="-86.3" font-family="Times,serif" font-size="14.00">UU (0)</text>
</g>
<!-- UU&#45;&#45;AW -->
<g id="edge54" class="edge">
<title>UU&#45;&#45;AW</title>
<path fill="none" stroke="black" d="M133.02,-74.5C117.82,-62.8 96.49,-46.4 80.97,-34.46"/>
</g>
<!-- UU&#45;&#45;AR -->
<g id="edge53" class="edge">
<title>UU&#45;&#45;AR</title>
<path fill="none" stroke="black" d="M157.93,-72.05C161.86,-61.05 166.96,-46.76 170.88,-35.79"/>
</g>
<!-- CS -->
<g id="node54" class="node">
<title>CS</title>
<ellipse fill="none" stroke="black" cx="1637.88" cy="-306" rx="34.39" ry="18"/>
<text text-anchor="middle" x="1637.88" y="-302.3" font-family="Times,serif" font-size="14.00">CS (0)</text>
</g>
<!-- CS&#45;&#45;OZ -->
<g id="edge58" class="edge">
<title>CS&#45;&#45;OZ</title>
<path fill="none" stroke="black" d="M1613.66,-292.81C1588.93,-280.35 1550.64,-261.07 1525.17,-248.24"/>
</g>
<!-- CS&#45;&#45;MG -->
<g id="edge57" class="edge">
<title>CS&#45;&#45;MG</title>
<path fill="none" stroke="black" d="M1663.69,-293.86C1688.51,-282.56 1723.36,-264.93 1730.88,-252 1754.99,-210.5 1750.61,-187.76 1730.88,-144 1723.39,-127.4 1707.85,-113.91 1694.47,-104.7"/>
</g>
<!-- ZV -->
<g id="node56" class="node">
<title>ZV</title>
<ellipse fill="none" stroke="black" cx="867.88" cy="-162" rx="36" ry="18"/>
<text text-anchor="middle" x="867.88" y="-158.3" font-family="Times,serif" font-size="14.00">ZV (0)</text>
</g>
<!-- ZV&#45;&#45;YI -->
<g id="edge61" class="edge">
<title>ZV&#45;&#45;YI</title>
<path fill="none" stroke="black" d="M837.47,-152.28C791.09,-138.97 703.11,-113.73 655.83,-100.17"/>
</g>
<!-- ZV&#45;&#45;LS -->
<g id="edge62" class="edge">
<title>ZV&#45;&#45;LS</title>
<path fill="none" stroke="black" d="M884.58,-145.81C897.5,-134.07 915.29,-117.89 928.2,-106.16"/>
</g>
</g>
</svg>
