<?xml version="1.0" encoding="UTF-8" standalone="no"?>
<!DOCTYPE svg PUBLIC "-//W3C//DTD SVG 1.1//EN"
 "http://www.w3.org/Graphics/SVG/1.1/DTD/svg11.dtd">
<!-- Generated by graphviz version 7.0.4 (0)
 -->
<!-- Title: valves Pages: 1 -->
<svg width="193pt" height="548pt"
 viewBox="0.00 0.00 193.35 548.00" xmlns="http://www.w3.org/2000/svg" xmlns:xlink="http://www.w3.org/1999/xlink">
<g id="graph0" class="graph" transform="scale(1 1) rotate(0) translate(4 544)">
<title>valves</title>
<polygon fill="white" stroke="none" points="-4,4 -4,-544 189.35,-544 189.35,4 -4,4"/>
<!-- AA -->
<g id="node1" class="node">
<title>AA</title>
<ellipse fill="none" stroke="black" cx="56.05" cy="-522" rx="36.29" ry="18"/>
<text text-anchor="middle" x="56.05" y="-518.3" font-family="Times,serif" font-size="14.00">AA (0)</text>
</g>
<!-- DD -->
<g id="node2" class="node">
<title>DD</title>
<ellipse fill="none" stroke="black" cx="69.05" cy="-306" rx="42.49" ry="18"/>
<text text-anchor="middle" x="69.05" y="-302.3" font-family="Times,serif" font-size="14.00">DD (20)</text>
</g>
<!-- AA&#45;&#45;DD -->
<g id="edge1" class="edge">
<title>AA&#45;&#45;DD</title>
<path fill="none" stroke="black" d="M40.27,-505.35C31.44,-495.52 21.21,-482.07 16.05,-468 -0.46,-422.9 -7.13,-404.04 12.05,-360 19.02,-344.02 33.44,-330.69 46.03,-321.39"/>
</g>
<!-- II -->
<g id="node3" class="node">
<title>II</title>
<ellipse fill="none" stroke="black" cx="56.05" cy="-450" rx="30.59" ry="18"/>
<text text-anchor="middle" x="56.05" y="-446.3" font-family="Times,serif" font-size="14.00">II (0)</text>
</g>
<!-- AA&#45;&#45;II -->
<g id="edge2" class="edge">
<title>AA&#45;&#45;II</title>
<path fill="none" stroke="black" d="M56.05,-503.7C56.05,-492.85 56.05,-478.92 56.05,-468.1"/>
</g>
<!-- BB -->
<g id="node4" class="node">
<title>BB</title>
<ellipse fill="none" stroke="black" cx="145.05" cy="-450" rx="40.09" ry="18"/>
<text text-anchor="middle" x="145.05" y="-446.3" font-family="Times,serif" font-size="14.00">BB (13)</text>
</g>
<!-- AA&#45;&#45;BB -->
<g id="edge3" class="edge">
<title>AA&#45;&#45;BB</title>
<path fill="none" stroke="black" d="M74.93,-506.15C89.93,-494.36 110.83,-477.92 125.9,-466.07"/>
</g>
<!-- EE -->
<g id="node6" class="node">
<title>EE</title>
<ellipse fill="none" stroke="black" cx="69.05" cy="-234" rx="36" ry="18"/>
<text text-anchor="middle" x="69.05" y="-230.3" font-family="Times,serif" font-size="14.00">EE (3)</text>
</g>
<!-- DD&#45;&#45;EE -->
<g id="edge6" class="edge">
<title>DD&#45;&#45;EE</title>
<path fill="none" stroke="black" d="M69.05,-287.7C69.05,-276.85 69.05,-262.92 69.05,-252.1"/>
</g>
<!-- JJ -->
<g id="node10" class="node">
<title>JJ</title>
<ellipse fill="none" stroke="black" cx="57.05" cy="-378" rx="36" ry="18"/>
<text text-anchor="middle" x="57.05" y="-374.3" font-family="Times,serif" font-size="14.00">JJ (21)</text>
</g>
<!-- II&#45;&#45;JJ -->
<g id="edge10" class="edge">
<title>II&#45;&#45;JJ</title>
<path fill="none" stroke="black" d="M56.3,-431.7C56.46,-420.85 56.66,-406.92 56.81,-396.1"/>
</g>
<!-- CC -->
<g id="node5" class="node">
<title>CC</title>
<ellipse fill="none" stroke="black" cx="145.05" cy="-378" rx="34.39" ry="18"/>
<text text-anchor="middle" x="145.05" y="-374.3" font-family="Times,serif" font-size="14.00">CC (2)</text>
</g>
<!-- BB&#45;&#45;CC -->
<g id="edge4" class="edge">
<title>BB&#45;&#45;CC</title>
<path fill="none" stroke="black" d="M145.05,-431.7C145.05,-420.85 145.05,-406.92 145.05,-396.1"/>
</g>
<!-- CC&#45;&#45;DD -->
<g id="edge5" class="edge">
<title>CC&#45;&#45;DD</title>
<path fill="none" stroke="black" d="M128.56,-361.81C116.08,-350.31 98.97,-334.56 86.3,-322.89"/>
</g>
<!-- FF -->
<g id="node7" class="node">
<title>FF</title>
<ellipse fill="none" stroke="black" cx="69.05" cy="-162" rx="34.39" ry="18"/>
<text text-anchor="middle" x="69.05" y="-158.3" font-family="Times,serif" font-size="14.00">FF (0)</text>
</g>
<!-- EE&#45;&#45;FF -->
<g id="edge7" class="edge">
<title>EE&#45;&#45;FF</title>
<path fill="none" stroke="black" d="M69.05,-215.7C69.05,-204.85 69.05,-190.92 69.05,-180.1"/>
</g>
<!-- GG -->
<g id="node8" class="node">
<title>GG</title>
<ellipse fill="none" stroke="black" cx="69.05" cy="-90" rx="36.29" ry="18"/>
<text text-anchor="middle" x="69.05" y="-86.3" font-family="Times,serif" font-size="14.00">GG (0)</text>
</g>
<!-- FF&#45;&#45;GG -->
<g id="edge8" class="edge">
<title>FF&#45;&#45;GG</title>
<path fill="none" stroke="black" d="M69.05,-143.7C69.05,-132.85 69.05,-118.92 69.05,-108.1"/>
</g>
<!-- HH -->
<g id="node9" class="node">
<title>HH</title>
<ellipse fill="none" stroke="black" cx="69.05" cy="-18" rx="43.59" ry="18"/>
<text text-anchor="middle" x="69.05" y="-14.3" font-family="Times,serif" font-size="14.00">HH (22)</text>
</g>
<!-- GG&#45;&#45;HH -->
<g id="edge9" class="edge">
<title>GG&#45;&#45;HH</title>
<path fill="none" stroke="black" d="M69.05,-71.7C69.05,-60.85 69.05,-46.92 69.05,-36.1"/>
</g>
</g>
</svg>
